<svg id="Layer_1" enable-background="new 0 0 511.999 511.999" height="512" viewBox="0 0 511.999 511.999" width="512" xmlns="http://www.w3.org/2000/svg"><g><g clip-rule="evenodd" fill-rule="evenodd"><path d="m216 76h80v-20c0-11-9-20-20-20h-40c-11 0-20 9-20 20z" fill="#e3eaef"/><path d="m296 76h-80-186c-11 0-20 9-20 20s8.999 20 20 20h452c11 0 20-9 20-20s-8.999-20-20-20z" fill="#e3eaef"/><path d="m481.999 116h-451.999v299.999c0 11 9 20 20 20h412c11 0 20-9 20-20v-299.999z" fill="#fff"/><path d="m155.997 365.999h.001c16.568 0 30-13.431 30-30 0-16.568-13.431-30-30-30h-.001c-16.568 0-30 13.431-30 30 .001 16.569 13.432 30 30 30z" fill="#ff5d7d"/><path d="m255.999 366h.001c16.568 0 30-13.431 30-30v-60c0-16.568-13.431-30-30-30h-.001c-16.568 0-30 13.431-30 30v60c0 16.568 13.432 30 30 30z" fill="#ffc144"/><path d="m356.001 365.999h.001c16.568 0 30-13.431 30-30v-120c0-16.568-13.431-30-30-30h-.001c-16.568 0-30 13.431-30 30v120.001c0 16.568 13.431 29.999 30 29.999z" fill="#88df8e"/><g fill="#e3eaef"><path d="m106 185.999c-5.523 0-10-4.477-10-10s4.477-10 10-10h79.999c5.523 0 10 4.477 10 10s-4.477 10-10 10z"/><path d="m106 226.001c-5.523 0-10-4.477-10-10s4.477-10 10-10h79.999c5.523 0 10 4.477 10 10s-4.477 10-10 10z"/></g></g><g><path d="m511.999 96c0-16.542-13.458-30-30-30h-175.999v-10c0-16.542-13.458-30-30-30h-40.001c-16.542 0-29.999 13.458-29.999 30v10h-176c-16.542 0-30 13.458-30 30 0 13.036 8.361 24.151 20 28.279v291.719c0 16.542 13.457 30 29.999 30h196.001v30c0 5.523 4.478 10 10 10s10-4.477 10-10v-30h196c16.542 0 29.999-13.458 29.999-30v-291.719c11.639-4.128 20-15.243 20-28.279zm-285.999-40c0-5.514 4.485-10 9.999-10h40.001c5.514 0 10 4.486 10 10v10h-60zm236 369.999h-412.001c-5.514 0-9.999-4.486-9.999-10v-289.999h431.999v289.999c0 5.514-4.485 10-9.999 10zm19.999-319.999h-451.999c-5.514 0-10-4.486-10-10s4.486-10 10-10h451.999c5.514 0 10 4.486 10 10s-4.486 10-10 10z" fill="#6d91ac"/></g></g></svg>