<svg id="Layer_1" enable-background="new 0 0 512.002 512.002" height="512" viewBox="0 0 512.002 512.002" width="512" xmlns="http://www.w3.org/2000/svg"><g><g><g clip-rule="evenodd" fill-rule="evenodd"><path d="m30.001 50h452c11 0 20-9 20-20s-8.999-20-20-20h-452c-11 0-20 9-20 20 0 11 9 20 20 20z" fill="#e3eaef"/><path d="m30.001 50h452v279.998h-452z" fill="#fff"/><path d="m482.001 329.998h-452c-11 0-20 9-20 20s8.999 19.999 20 19.999h205.999 40.001 205.999c11 0 20-9 20-20 .001-11-8.999-19.999-19.999-19.999z" fill="#e3eaef"/><path d="m236 369.997h40.001v72.004h-40.001z" fill="#fff"/><path d="m276.002 442.001h-40.002-79.999c-11 0-20 9-20 20v20h240v-20c0-11-9-20-20-20z" fill="#e3eaef"/><path d="m270.003 189.999c0-49.705-40.294-90-90-90v90z" fill="#88df8e"/><path d="m180.003 189.999v-90c-49.705 0-90 40.295-90 90 0 16.396 4.384 31.768 12.045 45.008z" fill="#ff5d7d"/><path d="m270.003 189.999h-90l-77.955 45.008c15.563 26.897 44.646 44.992 77.955 44.992 49.706 0 90-40.295 90-90z" fill="#ffc144"/></g><g><path d="m376.001 240h-45.997c-5.522 0-10-4.478-10-10s4.478-10 10-10h45.997c5.522 0 10 4.478 10 10s-4.477 10-10 10zm45.999-40.001h-91.995c-5.522 0-10-4.478-10-10s4.478-10 10-10h91.995c5.522 0 10 4.478 10 10s-4.478 10-10 10zm0-40.002h-91.995c-5.522 0-10-4.478-10-10s4.478-10 10-10h91.995c5.522 0 10 4.478 10 10s-4.478 10-10 10z" fill="#e3eaef"/></g></g><g><path d="m492 321.717v-263.437c11.639-4.128 20-15.244 20-28.281 0-16.541-13.458-29.999-30-29.999h-451.999c-16.542 0-30 13.458-30 30 0 13.036 8.361 24.152 20 28.28v263.438c-11.639 4.128-20 15.244-20 28.281 0 16.541 13.458 29.999 30 29.999h195.999v52.004h-69.999c-16.543 0-30.001 13.458-30.001 30v20 20.001c0 5.522 4.478 10 10 10s10-4.478 10-10v-10.001h100.001v10.001c0 5.522 4.478 10 10 10s10-4.478 10-10v-10.001h100v10.001c0 5.522 4.478 10 10 10s10-4.478 10-10v-20.001-20c0-16.542-13.458-30-30-30h-70v-52.004h195.999c16.542 0 30-13.458 30-30 0-13.037-8.36-24.153-20-28.281zm-451.999-1.72v-259.997h431.999v259.997zm-10-299.997h451.999c5.514 0 10 4.486 10 10s-4.486 10-10 10h-451.999c-5.514 0-10-4.486-10-10.001 0-5.514 4.487-9.999 10-9.999zm336 442.001v10h-220.001v-10c0-5.514 4.486-10 10.001-10h200c5.514 0 10 4.486 10 10zm-100-30h-20.001v-52.004h20.001zm215.999-72.004h-451.999c-5.514 0-10-4.486-10-10s4.486-10 10-10h451.999c5.514 0 10 4.486 10 10.001 0 5.514-4.486 9.999-10 9.999z" fill="#6d91ac"/></g></g></svg>