<svg id="Layer_1" enable-background="new 0 0 512 512" height="512" viewBox="0 0 512 512" width="512" xmlns="http://www.w3.org/2000/svg"><g><g><path clip-rule="evenodd" d="m325.999 10-10 20c-4.918 9.836-9.002 20-20 20h-79.997c-10.998 0-15.081-10.161-20-20l-10-20h-50.002c-11 0-20 9-20 20v432h280v-432c0-11-9-20-20-20z" fill="#fff" fill-rule="evenodd"/><g clip-rule="evenodd" fill="#ccf5fc" fill-rule="evenodd"><path d="m315.999 30 10-20h-139.998l10 20c4.919 9.839 9.002 20 20 20h79.997c10.998 0 15.083-10.163 20.001-20z"/><path d="m396 462h-280v20c0 11 9 20 20 20h240c11 0 20-9 20-20z"/></g><g><path d="m156.001 245.997c-2.543 0-5.085-.963-7.035-2.893-3.925-3.886-3.957-10.217-.072-14.143l71.573-72.308c1.879-1.897 4.438-2.965 7.107-2.965s5.229 1.067 7.107 2.965l33.502 33.847 77.974-78.774c3.887-3.926 10.217-3.957 14.143-.072 3.925 3.886 3.957 10.217.072 14.143l-85.081 85.954c-1.879 1.897-4.438 2.965-7.107 2.965s-5.229-1.067-7.107-2.965l-33.502-33.847-64.466 65.128c-1.957 1.976-4.532 2.965-7.108 2.965z" fill="#ff5d7d"/></g><g><path d="m356 158.371c-5.522 0-10-4.478-10-10v-22.374h-22.373c-5.522 0-10-4.478-10-10s4.478-10 10-10h32.373c5.522 0 10 4.478 10 10v32.374c0 5.523-4.478 10-10 10z" fill="#ff5d7d"/></g><path clip-rule="evenodd" d="m166 275.999h180c11.046 0 20 8.954 20 20 0 11.046-8.954 20-20 20h-180c-11.046 0-20-8.954-20-20 0-11.046 8.955-20 20-20z" fill="#9d9ae8" fill-rule="evenodd"/><g><path d="m226.004 366h-70.003c-5.522 0-10-4.478-10-10s4.478-10 10-10h70.003c5.522 0 10 4.478 10 10s-4.478 10-10 10z" fill="#e3eaef"/></g><g><path d="m226.004 406.002h-70.003c-5.522 0-10-4.478-10-10s4.478-10 10-10h70.003c5.522 0 10 4.478 10 10s-4.478 10-10 10z" fill="#e3eaef"/></g><g><path d="m356 366h-70.003c-5.522 0-10-4.478-10-10s4.478-10 10-10h70.003c5.522 0 10 4.478 10 10s-4.478 10-10 10z" fill="#e3eaef"/></g><g><path d="m356 406.002h-70.003c-5.522 0-10-4.478-10-10s4.478-10 10-10h70.003c5.522 0 10 4.478 10 10s-4.478 10-10 10z" fill="#e3eaef"/></g></g><path d="m376 0h-240c-16.542 0-30 13.458-30 30v452c0 16.542 13.458 30 30 30h240c16.542 0 30-13.458 30-30v-452c0-16.542-13.458-30-30-30zm-66.181 20-2.764 5.528c-.389.776-.771 1.555-1.153 2.33-4.557 9.259-6.518 12.142-9.903 12.142h-79.997c-3.386 0-5.346-2.883-9.902-12.141-.382-.776-.765-1.555-1.153-2.331l-2.765-5.528zm-173.819 0h43.821l7.236 14.472c.369.739.734 1.48 1.098 2.219 4.842 9.836 11.472 23.309 27.847 23.309h79.997c16.373 0 23.005-13.473 27.847-23.31.363-.738.729-1.479 1.098-2.219l7.235-14.471h43.821c5.514 0 10 4.486 10 10v422h-259.999-.001v-422c0-5.514 4.486-10 10-10zm250 462c0 5.514-4.486 10-10 10h-240c-5.514 0-10-4.486-10-10v-10h.001 259.999z" fill="#8481e2"/></g></svg>