<svg id="Layer_1" enable-background="new 0 0 512 512" height="512" viewBox="0 0 512 512" width="512" xmlns="http://www.w3.org/2000/svg"><g><path d="m242 186h130v60l60-60h70v-160h-260z" fill="#ffee80"/><path d="m130 386v60l20 40h-60v-100" fill="#99ebfa"/><path d="m10 286h40v80h-40z" fill="#fff"/><path d="m290 406-120-40v-80l120-40z" fill="#fff"/><path d="m290 226h40v200h-40z" fill="#ccf5fc"/><path d="m50 266h120v120h-120z" fill="#ccf5fc"/><g fill="#60a4ff"><path d="m502 16h-260c-5.523 0-10 4.478-10 10v160c0 5.523 4.477 10 10 10h120v50c0 4.045 2.436 7.691 6.173 9.239 1.237.512 2.537.761 3.825.761 2.603 0 5.16-1.016 7.073-2.929l57.072-57.071h65.857c5.522 0 10-4.477 10-10v-160c0-5.522-4.478-10-10-10zm-10 160h-60c-2.652 0-5.195 1.054-7.071 2.929l-42.929 42.928v-35.857c0-5.523-4.478-10-10-10h-120v-140h240z"/><path d="m282 156c5.522 0 10-4.477 10-10v-20h20v20c0 5.523 4.478 10 10 10s10-4.477 10-10v-80c0-5.522-4.478-10-10-10h-40c-5.522 0-10 4.478-10 10v80c0 5.523 4.478 10 10 10zm30-80v30h-20v-30z"/><path d="m362 156c27.57 0 50-22.43 50-50s-22.43-50-50-50c-5.522 0-10 4.478-10 10v80c0 5.523 4.478 10 10 10zm10-78.286c11.641 4.127 20 15.249 20 28.286s-8.359 24.159-20 28.286z"/><path d="m432 136c-5.522 0-10 4.477-10 10s4.478 10 10 10h30c5.522 0 10-4.477 10-10v-40c0-5.522-4.478-10-10-10h-20v-20h20c5.522 0 10-4.478 10-10s-4.478-10-10-10h-30c-5.522 0-10 4.478-10 10v40c0 5.522 4.478 10 10 10h20v20z"/><path d="m330 216h-40c-5.522 0-10 4.477-10 10v12.792l-100 33.333v-6.125c0-5.522-4.477-10-10-10h-120c-5.523 0-10 4.478-10 10v10h-30c-5.523 0-10 4.478-10 10v80c0 5.522 4.477 10 10 10h30v10c0 5.522 4.477 10 10 10h30v90c0 5.522 4.477 10 10 10h60c3.466 0 6.685-1.795 8.506-4.743 1.822-2.947 1.988-6.629.438-9.729l-18.944-37.888v-47.64h30c5.523 0 10-4.478 10-10v-6.125l100 33.333v12.792c0 5.522 4.478 10 10 10h40c5.522 0 10-4.478 10-10v-200c0-5.523-4.478-10-10-10zm-310 140v-60h20v60zm101.056 94.472 12.764 25.528h-33.82v-80h20v50c0 1.553.361 3.084 1.056 4.472zm-61.056-74.472v-100h100v10.174.036 79.581.036 10.173zm120-17.208v-65.584l100-33.333v132.251zm140 57.208h-20v-9.788c0-.015 0-.03 0-.044v-160.335c0-.015 0-.03 0-.044v-9.789h20z"/></g><g><path d="m90 354c-5.523 0-10-4.478-10-10v-38c0-5.522 4.477-10 10-10s10 4.478 10 10v38c0 5.522-4.477 10-10 10z" fill="#99ebfa"/></g><g><path d="m130 354c-5.523 0-10-4.478-10-10v-38c0-5.522 4.477-10 10-10s10 4.478 10 10v38c0 5.522-4.477 10-10 10z" fill="#99ebfa"/></g></g></svg>