<svg id="Layer_1" enable-background="new 0 0 512 512" height="512" viewBox="0 0 512 512" width="512" xmlns="http://www.w3.org/2000/svg"><g><path d="m206 382v-29.194h-.003c-52.626-20.129-89.997-71.103-89.997-130.806 0-77.32 62.68-140 140-140s140 62.68 140 140c0 59.704-37.372 110.679-90 130.807v29.193" fill="#ffee80"/><path d="m276 502h-40l-20-40h80z" fill="#ffee80"/><g fill="#fff"><path d="m306 462h-100c-11.046 0-20-8.954-20-20 0-11.046 8.954-20 20-20h100c11.046 0 20 8.954 20 20 0 11.046-8.954 20-20 20z"/><path d="m306 422h-100c-11.046 0-20-8.954-20-20 0-11.046 8.954-20 20-20h100c11.046 0 20 8.954 20 20 0 11.046-8.954 20-20 20z"/><circle cx="216" cy="242" r="20"/><circle cx="296" cy="242" r="20"/></g><circle cx="70" cy="70" fill="#ffee80" r="60"/><circle cx="70" cy="70" fill="#fff" r="20"/><path d="m70 90c-17.411 0-32.216 11.127-37.711 26.656 10.305 8.34 23.421 13.344 37.711 13.344s27.406-5.004 37.711-13.344c-5.495-15.529-20.3-26.656-37.711-26.656z" fill="#fff"/><circle cx="442" cy="70" fill="#fff" r="60"/><circle cx="442" cy="70" fill="#ffee80" r="20"/><path d="m442 90c-17.411 0-32.216 11.127-37.711 26.656 10.305 8.34 23.421 13.344 37.711 13.344s27.406-5.004 37.711-13.344c-5.495-15.529-20.3-26.656-37.711-26.656z" fill="#ffee80"/><circle cx="70" cy="442" fill="#fff" r="60"/><circle cx="70" cy="442" fill="#ffee80" r="20"/><path d="m70 462c17.411 0 32.216 11.127 37.711 26.656-10.305 8.34-23.421 13.344-37.711 13.344s-27.406-5.004-37.711-13.344c5.495-15.529 20.3-26.656 37.711-26.656z" fill="#ffee80"/><circle cx="442" cy="442" fill="#ffee80" r="60"/><circle cx="442" cy="442" fill="#fff" r="20"/><path d="m442 462c17.411 0 32.216 11.127 37.711 26.656-10.305 8.34-23.421 13.344-37.711 13.344s-27.406-5.004-37.711-13.344c5.495-15.529 20.3-26.656 37.711-26.656z" fill="#fff"/><g fill="#ffc144"><path d="m378.925 307.983c17.713-25.279 27.075-55.011 27.075-85.983 0-82.71-67.29-150-150-150s-150 67.29-150 150c0 30.971 9.362 60.703 27.074 85.982 15.971 22.794 37.626 40.503 62.926 51.536v14.202c-11.639 4.128-20 15.244-20 28.28 0 7.678 2.902 14.689 7.663 20-4.761 5.311-7.663 12.322-7.663 20 0 16.542 13.458 30 30 30h3.82l17.236 34.472c1.693 3.388 5.156 5.528 8.944 5.528h40c3.788 0 7.25-2.14 8.944-5.528l17.236-34.472h3.82c16.542 0 30-13.458 30-30 0-7.678-2.902-14.689-7.664-20 4.761-5.311 7.664-12.322 7.664-20 0-13.036-8.361-24.152-20-28.28v-14.202c25.3-11.033 46.953-28.741 62.925-51.535zm-229.471-11.478c-15.344-21.898-23.454-47.661-23.454-74.505 0-71.683 58.318-130 130-130s130 58.317 130 130c0 26.844-8.11 52.607-23.455 74.506-15.009 21.421-35.797 37.659-60.118 46.962-3.871 1.48-6.428 5.195-6.428 9.34v19.192h-10v-101.72c3.13 1.11 6.494 1.72 10 1.72 16.542 0 30-13.458 30-30s-13.458-30-30-30-30 13.458-30 30v130h-20v-130c0-16.542-13.458-30-30-30s-30 13.458-30 30 13.458 30 30 30c3.506 0 6.87-.61 10-1.72v101.72h-10v-19.193c0-4.345-2.773-8.042-6.644-9.422-24.227-9.316-44.936-25.523-59.901-46.88zm136.546-54.505c0-5.514 4.486-10 10-10s10 4.486 10 10-4.486 10-10 10-10-4.486-10-10zm-60 0c0 5.514-4.486 10-10 10s-10-4.486-10-10 4.486-10 10-10 10 4.486 10 10zm-20 150h100c5.514 0 10 4.486 10 10s-4.486 10-10 10h-100c-5.514 0-10-4.486-10-10s4.486-10 10-10zm63.82 100h-27.64l-10-20h47.64zm36.18-40h-100c-5.514 0-10-4.486-10-10s4.486-10 10-10h100c5.514 0 10 4.486 10 10s-4.486 10-10 10z"/><path d="m70 140c38.598 0 70-31.402 70-70s-31.402-70-70-70-70 31.402-70 70 31.402 70 70 70zm-24.921-26.681c5.507-8.22 14.798-13.319 24.921-13.319 10.122 0 19.413 5.099 24.921 13.319-7.343 4.241-15.85 6.681-24.921 6.681s-17.579-2.44-24.921-6.681zm14.921-43.319c0-5.514 4.486-10 10-10s10 4.486 10 10-4.486 10-10 10-10-4.486-10-10zm10-50c27.57 0 50 22.43 50 50 0 11.239-3.729 21.623-10.013 29.982-4.092-5.449-9.229-9.964-15.056-13.316 3.199-4.77 5.069-10.503 5.069-16.666 0-16.542-13.458-30-30-30s-30 13.458-30 30c0 6.162 1.87 11.895 5.069 16.665-5.827 3.352-10.964 7.867-15.056 13.316-6.284-8.359-10.013-18.742-10.013-29.981 0-27.57 22.43-50 50-50z"/><path d="m442 140c38.598 0 70-31.402 70-70s-31.402-70-70-70-70 31.402-70 70 31.402 70 70 70zm-24.921-26.681c5.507-8.22 14.798-13.319 24.921-13.319 10.122 0 19.413 5.099 24.921 13.319-7.343 4.241-15.85 6.681-24.921 6.681-9.072 0-17.579-2.44-24.921-6.681zm14.921-43.319c0-5.514 4.486-10 10-10s10 4.486 10 10-4.486 10-10 10-10-4.486-10-10zm10-50c27.57 0 50 22.43 50 50 0 11.239-3.729 21.623-10.013 29.982-4.092-5.449-9.229-9.964-15.056-13.316 3.199-4.77 5.069-10.503 5.069-16.666 0-16.542-13.458-30-30-30s-30 13.458-30 30c0 6.162 1.87 11.895 5.068 16.665-5.827 3.352-10.964 7.867-15.056 13.316-6.283-8.359-10.012-18.742-10.012-29.981 0-27.57 22.43-50 50-50z"/><path d="m70 372c-38.598 0-70 31.402-70 70s31.402 70 70 70 70-31.402 70-70-31.402-70-70-70zm-24.921 113.319c5.508-8.22 14.799-13.319 24.921-13.319 10.123 0 19.414 5.099 24.921 13.319-7.342 4.241-15.849 6.681-24.921 6.681-9.071 0-17.578-2.44-24.921-6.681zm14.921-43.319c0-5.514 4.486-10 10-10s10 4.486 10 10-4.486 10-10 10-10-4.486-10-10zm49.988 29.981c-4.092-5.449-9.229-9.964-15.056-13.316 3.198-4.77 5.068-10.503 5.068-16.665 0-16.542-13.458-30-30-30s-30 13.458-30 30c0 6.163 1.87 11.896 5.069 16.665-5.827 3.352-10.964 7.868-15.056 13.316-6.284-8.358-10.013-18.742-10.013-29.981 0-27.57 22.43-50 50-50s50 22.43 50 50c0 11.239-3.729 21.622-10.012 29.981z"/><path d="m442 372c-38.598 0-70 31.402-70 70s31.402 70 70 70 70-31.402 70-70-31.402-70-70-70zm-24.921 113.319c5.508-8.22 14.799-13.319 24.921-13.319 10.123 0 19.414 5.099 24.921 13.319-7.342 4.241-15.849 6.681-24.921 6.681-9.071 0-17.578-2.44-24.921-6.681zm14.921-43.319c0-5.514 4.486-10 10-10s10 4.486 10 10-4.486 10-10 10-10-4.486-10-10zm49.988 29.981c-4.092-5.449-9.229-9.964-15.056-13.316 3.198-4.77 5.068-10.503 5.068-16.665 0-16.542-13.458-30-30-30s-30 13.458-30 30c0 6.163 1.87 11.896 5.069 16.665-5.827 3.352-10.964 7.868-15.056 13.316-6.284-8.358-10.013-18.742-10.013-29.981 0-27.57 22.43-50 50-50s50 22.43 50 50c0 11.239-3.729 21.622-10.012 29.981z"/></g></g></svg>