<svg id="Layer_1" enable-background="new 0 0 512 512" height="512" viewBox="0 0 512 512" width="512" xmlns="http://www.w3.org/2000/svg"><g><g><g fill="#ccf5fc"><path d="m386 446v-200h40v200"/><path d="m306 446v-100h40v100"/><path d="m266 446v-60h-40v60"/><path d="m146 446v-140h40v140"/><path d="m66 446v-80h40v80"/></g><circle cx="86" cy="286" fill="#fff" r="20"/><circle cx="166" cy="206" fill="#fff" r="20"/><circle cx="246" cy="286" fill="#fff" r="20"/><circle cx="326" cy="206" fill="#fff" r="20"/></g><g fill="#60a4ff"><path d="m405.995 116.001h-49.995c-5.522 0-10 4.477-10 10s4.478 10 10 10h25.857l-42.929 42.929c-.001.001-.002.002-.003.003-3.917-1.878-8.3-2.932-12.926-2.932-16.542 0-30 13.458-30 30 0 4.626 1.054 9.009 2.932 12.926-.001.001-.002.002-.003.003l-40 40c-.001.001-.002.002-.003.003-3.917-1.878-8.3-2.932-12.926-2.932s-9.009 1.054-12.926 2.932c-.001-.001-.002-.002-.003-.003l-40-40c-.001-.001-.002-.002-.003-.003 1.878-3.917 2.932-8.3 2.932-12.926 0-16.542-13.458-30-30-30s-30 13.458-30 30c0 4.626 1.054 9.009 2.932 12.926-.001.001-.002.002-.003.003l-40 40c-.001.001-.002.002-.003.003-3.916-1.879-8.299-2.933-12.925-2.933-16.542 0-30 13.458-30 30s13.458 30 30 30 30-13.458 30-30c0-4.626-1.054-9.009-2.932-12.926l.003-.003 40-40c.001-.001.002-.002.003-.003 3.917 1.878 8.3 2.932 12.926 2.932s9.009-1.054 12.926-2.932l.003.003 40 40 .003.003c-1.878 3.917-2.932 8.3-2.932 12.926 0 16.542 13.458 30 30 30s30-13.458 30-30c0-4.626-1.054-9.009-2.932-12.926l.003-.003 40-40c.001-.001.002-.002.003-.003 3.917 1.878 8.3 2.932 12.926 2.932 16.542 0 30-13.458 30-30 0-4.626-1.054-9.009-2.932-12.926.001-.001.002-.002.003-.003l42.929-42.928v25.857c0 5.523 4.478 10 10 10s10-4.477 10-10v-49.995c0-5.917-5.022-10.004-10.005-10.004zm-79.995 79.999c5.514 0 10 4.486 10 10s-4.486 10-10 10-10-4.486-10-10 4.486-10 10-10zm-80 80c5.514 0 10 4.486 10 10s-4.486 10-10 10-10-4.486-10-10 4.486-10 10-10zm-80-80c5.514 0 10 4.486 10 10s-4.486 10-10 10-10-4.486-10-10 4.486-10 10-10zm-80 80c5.514 0 10 4.486 10 10s-4.486 10-10 10-10-4.486-10-10 4.486-10 10-10z"/><path d="m502 116h-30v-20h30c5.522 0 10-4.477 10-10s-4.478-10-10-10h-10v-9.494c0-5.523-4.478-10-10-10s-10 4.477-10 10v9.494h-10c-5.522 0-10 4.477-10 10v40c0 5.523 4.478 10 10 10h30v20h-30c-5.522 0-10 4.477-10 10s4.478 10 10 10h10v10c0 5.523 4.478 10 10 10s10-4.477 10-10v-10h10c5.522 0 10-4.477 10-10v-40c0-5.523-4.478-10-10-10z"/><path d="m482 436h-46v-190c0-5.523-4.478-10-10-10h-40c-5.522 0-10 4.477-10 10v190h-20v-90c0-5.523-4.478-10-10-10h-40c-5.522 0-10 4.477-10 10v90h-20v-50c0-5.523-4.478-10-10-10h-40c-5.523 0-10 4.477-10 10v50h-20v-130c0-5.523-4.477-10-10-10h-40c-5.523 0-10 4.477-10 10v130h-20v-70c0-5.523-4.478-10-10-10h-40c-5.522 0-10 4.477-10 10v70h-36v-370c0-5.523-4.477-10-10-10s-10 4.477-10 10v380c0 5.523 4.477 10 10 10h472c5.522 0 10-4.477 10-10s-4.478-10-10-10zm-86-180h20v180h-20zm-80 100h20v80h-20zm-80 40h20v40h-20zm-80-80h20v120h-20zm-80 60h20v60h-20z"/></g></g></svg>