<svg id="Capa_1" enable-background="new 0 0 512.009 512.009" height="512" viewBox="0 0 512.009 512.009" width="512" xmlns="http://www.w3.org/2000/svg"><g><g><path d="m22.504 512.009c-4.142 0-7.5-3.367-7.5-7.509 0-8.806 6.662-49.051 37.438-70.623 5.506-3.859 15.339-8.174 30.616-13.406-4.175-7.328-5.321-16.261-2.672-24.487 3.657-11.355 13.166-18.725 25.968-20.434 5.593-18.047 17.816-26.842 37.215-26.842h22.89c-16.171-17.778-28.58-39.845-35.138-63.875-.541.396-1.101.773-1.68 1.129-7.192 4.417-15.98 4.776-23.51.959-6.276-3.182-14.898-10.359-20.332-26.486-1.323-3.925.788-8.179 4.713-9.502 3.924-1.324 8.179.787 9.502 4.713 2.976 8.833 7.557 15.188 12.899 17.896 2.885 1.462 6.121 1.331 8.877-.362s4.337-4.519 4.337-7.754v-74.36c0-3.235-1.581-6.061-4.337-7.754-2.758-1.693-5.993-1.825-8.877-.362-8.115 4.114-16.786 18.173-16.786 45.296 0 4.142-3.358 7.5-7.5 7.5s-7.5-3.358-7.5-7.5c0-28.804 9.347-50.738 25.003-58.675 1.253-.636 2.543-1.156 3.853-1.56-5.104-16.972-11.703-53.521 8.785-92.826l-6.472-3.425c-3.661-1.938-5.058-6.476-3.121-10.137s6.474-5.058 10.137-3.121l13.258 7.017c1.82.963 3.164 2.632 3.716 4.615s.266 4.107-.793 5.873c-25.235 42.059-13.698 81.443-9.494 92.685.145.059.29.119.434.181 1.724-54.016 11.616-77.743 51.671-108.739 2.702-2.091 6.478-2.091 9.18 0l22.771 17.621c3.276 2.535 3.876 7.246 1.342 10.521-2.536 3.276-7.246 3.877-10.521 1.342l-18.132-14.031c-31.644 25.6-39.682 45.403-41.276 91.703 11.319-7.557 27.657-9.109 44.688-9.109 29.695 0 47.917 5.195 57.345 16.35 2.58 3.052 4.457 6.502 5.629 10.332 2.151-.761 4.466-1.168 6.874-1.168s4.723.407 6.874 1.168c1.171-3.83 3.049-7.28 5.629-10.332 9.427-11.155 27.649-16.35 57.345-16.35 21.348 0 35.2 2.802 44.687 9.066-1.672-48.411-10.396-67.84-45.815-95.25-3.276-2.535-3.876-7.246-1.342-10.521 2.535-3.276 7.246-3.877 10.521-1.342 39.964 30.926 49.902 54.62 51.66 108.376l11.124-40.646c1.093-3.995 5.214-6.351 9.214-5.254 3.995 1.093 6.348 5.219 5.254 9.214l-9.847 35.979c1.558.429 3.088 1.018 4.57 1.77 15.656 7.937 25.003 29.872 25.003 58.675 0 22.158-5.531 40.251-15.211 51.034-4.68 38.807-23.603 58.021-64.979 63.478-1.667 2.032-3.382 4.017-5.141 5.95h22.89c19.399 0 31.622 8.795 37.215 26.842 12.802 1.709 22.311 9.079 25.968 20.434 2.649 8.226 1.502 17.159-2.672 24.487 15.276 5.231 25.109 9.546 30.616 13.406 30.776 21.572 37.438 61.817 37.438 70.623 0 4.142-3.358 7.5-7.5 7.5-4.137 0-7.492-3.35-7.5-7.485-.016-.507-2.88-38.611-31.047-58.354-4.94-3.463-16.295-8.104-33.763-13.8l-40.044 28.778c-3.363 2.418-8.049 1.65-10.467-1.713-2.417-3.364-1.65-8.05 1.713-10.467l43.12-30.988c5.465-3.927 7.862-11.077 5.83-17.387-2.131-6.618-8.538-10.414-17.576-10.414-3.529 0-6.581-2.46-7.329-5.909-2.821-12.994-8.357-19.019-19.197-20.29l-51.546 118.548 24.57-17.657c3.364-2.417 8.05-1.649 10.467 1.713 2.417 3.364 1.65 8.05-1.713 10.467l-46.683 33.549c-2.74 1.97-6.46 1.866-9.086-.253-2.627-2.12-3.514-5.732-2.168-8.828l41.334-95.062c-4.048-1.917-7.502-3.72-10.248-5.23-2.598 4.583-6.621 10.595-12.419 16.578-10.704 11.039-29.756 24.202-59.749 24.202s-49.044-13.163-59.746-24.205c-5.798-5.983-9.822-11.996-12.419-16.578-2.745 1.51-6.2 3.313-10.248 5.23l41.334 95.062c1.346 3.095.458 6.708-2.168 8.828-2.627 2.12-6.347 2.223-9.086.253l-108.856-78.23c-17.468 5.697-28.823 10.337-33.763 13.8-28.219 19.779-31.042 57.987-31.047 58.357-.001 4.143-3.359 7.492-7.501 7.492zm116.261-148.039c-10.839 1.271-16.376 7.296-19.197 20.29-.749 3.449-3.8 5.909-7.329 5.909-9.038 0-15.444 3.796-17.576 10.414-2.032 6.31.365 13.459 5.83 17.387l89.818 64.548zm55.755 25.218c2.832 6.536 18.625 37.812 61.484 37.812 42.669 0 58.7-31.505 61.484-37.827v-16.494c-7.63 4.95-15.662 9.055-23.984 12.182v5.878c0 4.142-3.358 7.5-7.5 7.5s-7.5-3.358-7.5-7.5v-1.395c-4.937 1.101-9.949 1.854-15 2.231v3.164c0 4.142-3.358 7.5-7.5 7.5s-7.5-3.358-7.5-7.5v-3.164c-5.051-.377-10.063-1.13-15-2.231v1.395c0 4.142-3.358 7.5-7.5 7.5s-7.5-3.358-7.5-7.5v-5.878c-8.322-3.127-16.354-7.232-23.984-12.182zm137.969-2.762c2.642 1.532 6.728 3.781 11.914 6.256l12.597-28.973h-24.512v22.717zm-177.481-22.717 12.598 28.974c5.185-2.475 9.271-4.724 11.914-6.256v-22.717h-24.512zm78.496 10.174c4.976 1.306 9.988 2.191 15 2.637v-2.549c0-4.142 3.358-7.5 7.5-7.5s7.5 3.358 7.5 7.5v2.549c5.012-.445 10.024-1.331 15-2.637v-3.913c0-4.142 3.358-7.5 7.5-7.5 3.7 0 6.774 2.679 7.388 6.203 12.605-5.535 24.667-13.762 35.469-24.323-2.244.054-4.539.08-6.883.08-4.142 0-7.5-3.358-7.5-7.5s3.358-7.5 7.5-7.5c7.619 0 14.506-.288 20.729-.858 18.013-23.929 28.174-53.233 28.174-81.987v-10.586c-10.57 9.6-26.176 15.145-45.029 15.145-15.244 0-28.098-3.077-38.239-8.988 2.681 13.138-3.659 20.08-14.655 26.771-10.457 6.364-23.449 6.364-33.907 0-10.996-6.691-17.336-13.633-14.654-26.771-10.142 5.912-22.996 8.988-38.24 8.988-18.853 0-34.459-5.545-45.029-15.145v10.586c0 32.408 12.909 65.517 35.416 90.837 12.383 13.931 26.832 24.559 42.072 31.251.614-3.524 3.688-6.203 7.388-6.203 4.142 0 7.5 3.358 7.5 7.5zm147.184-89.049c-3.894 14.267-9.851 27.843-17.432 40.24 22.016-6.009 31.326-18.146 35.509-35.829-5.599.905-11.385-.204-16.397-3.282-.579-.356-1.139-.733-1.68-1.129zm5.193-38.25v18.843c0 3.235 1.581 6.061 4.337 7.754 2.757 1.692 5.991 1.826 8.877.362 8.115-4.114 16.786-18.173 16.786-45.296s-8.671-41.183-16.786-45.296c-2.885-1.462-6.121-1.332-8.877.362-2.756 1.693-4.337 4.519-4.337 7.754zm-129.877-47.891c-.94 0-4.086.278-5.085 3.861l-11.417 40.924c-1.456 5.22-1.947 6.979 7.347 12.635 5.647 3.436 12.664 3.436 18.312 0 9.294-5.656 8.803-7.415 7.347-12.635l-11.417-40.924c-1.001-3.583-4.146-3.861-5.087-3.861zm69.848-25.514c-24.262 0-39.701 3.712-45.889 11.033-3.268 3.866-4.262 9.259-3.041 16.487 3.975 23.52 20.437 35.445 48.929 35.445 27.775 0 45.029-13.427 45.029-35.041.001-18.919-6.737-27.924-45.028-27.924zm-184.724 27.924c0 21.614 17.254 35.041 45.029 35.041 28.492 0 44.954-11.925 48.929-35.445 1.221-7.228.227-12.621-3.041-16.487-6.188-7.32-21.626-11.032-45.888-11.032-38.291-.001-45.029 9.004-45.029 27.923zm114.876 135.773c-20.55 0-41.036-5.463-60.886-16.238-11.679-6.34-16.023-21-9.684-32.678 3.07-5.657 8.16-9.781 14.332-11.61 6.171-1.83 12.687-1.145 18.345 1.926 9.289 5.042 25.726 10.4 37.893 10.4 12.168 0 28.604-5.358 37.892-10.4 11.679-6.339 26.337-1.996 32.678 9.683 6.34 11.678 1.996 26.337-9.682 32.678-19.851 10.776-40.336 16.239-60.888 16.239zm-49.378-46.523c-.868 0-1.741.125-2.597.379-2.33.691-4.251 2.248-5.411 4.384-2.394 4.41-.753 9.945 3.656 12.339 17.878 9.704 35.453 14.421 53.73 14.421 18.278 0 35.854-4.717 53.731-14.421 4.41-2.394 6.05-7.929 3.657-12.339-2.394-4.409-7.93-6.049-12.339-3.656-10.839 5.884-29.56 12.217-45.048 12.217-15.487 0-34.208-6.333-45.048-12.217-1.353-.734-2.835-1.107-4.331-1.107zm106.687 23.693h.01zm-9-96.601c-4.142 0-7.5-3.358-7.5-7.5v-16.757c0-4.142 3.358-7.5 7.5-7.5s7.5 3.358 7.5 7.5v16.757c0 4.142-3.358 7.5-7.5 7.5zm-96.617 0c-4.142 0-7.5-3.358-7.5-7.5v-16.757c0-4.142 3.358-7.5 7.5-7.5s7.5 3.358 7.5 7.5v16.757c0 4.142-3.358 7.5-7.5 7.5zm69.977-66.843c-2.795 0-5.479-1.57-6.768-4.259-1.791-3.735-.215-8.214 3.52-10.005 12.207-5.854 25.935-8.822 40.802-8.822 18.283 0 31.891 5.096 36.893 7.287 3.794 1.662 5.522 6.084 3.86 9.879-1.663 3.793-6.085 5.52-9.879 3.861-8.615-3.774-20.157-6.027-30.874-6.027-12.604 0-24.149 2.472-34.316 7.347-1.047.501-2.151.739-3.238.739zm-43.337 0c-1.087 0-2.191-.238-3.237-.739-10.167-4.875-21.712-7.347-34.316-7.347-10.717 0-22.259 2.253-30.874 6.027-3.794 1.659-8.218-.067-9.879-3.861-1.662-3.794.066-8.217 3.86-9.879 5.002-2.191 18.61-7.287 36.893-7.287 14.867 0 28.595 2.968 40.802 8.822 3.735 1.791 5.311 6.271 3.52 10.005-1.291 2.689-3.974 4.259-6.769 4.259zm177.285-41.375c-.656 0-1.321-.086-1.984-.268-3.995-1.093-6.348-5.219-5.254-9.214l5.376-19.644c-5.158-5.548-18.179-18.488-38.2-31.276-24.158-15.431-63.815-33.825-115.555-33.825-43.495 0-79.632 13.81-104.507 39.936-2.855 3.001-7.603 3.117-10.603.26-3-2.856-3.117-7.604-.26-10.603 27.775-29.173 67.669-44.593 115.37-44.593 55.633 0 98.221 19.858 124.151 36.518 28.167 18.096 43.091 36.126 43.713 36.884 1.541 1.88 2.074 4.39 1.433 6.733l-6.451 23.569c-.912 3.334-3.933 5.523-7.229 5.523zm-157.287-18.041c-1.604 0-3.218-.512-4.584-1.569l-22.771-17.621c-3.276-2.535-3.876-7.246-1.342-10.521 2.535-3.276 7.246-3.877 10.521-1.342l22.771 17.621c3.276 2.535 3.876 7.246 1.342 10.521-1.478 1.91-3.696 2.911-5.937 2.911zm48.873 0c-1.603 0-3.219-.512-4.584-1.569l-22.771-17.621c-3.276-2.535-3.876-7.246-1.342-10.521 2.534-3.276 7.245-3.878 10.521-1.342l22.771 17.621c3.276 2.535 3.876 7.246 1.342 10.521-1.478 1.911-3.696 2.911-5.937 2.911z"/></g></g></svg>